<?xml version="1.0" standalone="no"?>
<!DOCTYPE svg PUBLIC "-//W3C//DTD SVG 20010904//EN"
 "http://www.w3.org/TR/2001/REC-SVG-20010904/DTD/svg10.dtd">
<svg version="1.0" xmlns="http://www.w3.org/2000/svg"
 width="74.000000pt" height="74.000000pt" viewBox="0 0 74.000000 74.000000"
 preserveAspectRatio="xMidYMid meet">
<metadata>
Created by potrace 1.11, written by Peter Selinger 2001-2013
</metadata>
<g transform="translate(0.000000,74.000000) scale(0.100000,-0.100000)"
fill="#000000" stroke="none">
<path d="M53 604 c-16 -11 -18 -34 -18 -214 -1 -111 2 -203 5 -205 11 -7 28
10 31 30 4 21 26 27 45 13 15 -11 6 -60 -13 -75 -13 -10 -13 -14 -2 -26 9 -8
22 -11 34 -7 11 4 30 4 43 -1 13 -5 22 -5 22 1 0 6 9 6 25 0 14 -5 27 -5 30 0
3 5 18 5 35 0 18 -5 30 -5 30 0 0 6 10 6 25 0 14 -5 27 -5 30 0 3 5 18 5 35 0
18 -5 30 -5 30 0 0 6 10 6 25 0 14 -5 27 -5 30 0 3 5 18 5 35 0 18 -5 30 -5
30 0 0 6 10 6 25 0 13 -5 27 -6 29 -1 3 5 16 6 28 4 13 -2 32 2 43 10 18 14
20 28 20 224 1 114 -3 220 -7 234 l-9 26 -309 0 c-237 0 -314 -3 -327 -13z
m60 -33 c-2 -6 1 -11 5 -11 4 0 7 -12 6 -27 0 -22 -6 -27 -27 -28 -25 -2 -27
1 -27 35 0 20 3 39 6 42 9 10 39 1 37 -11z m557 -24 c0 -39 -2 -43 -25 -43
-22 0 -25 4 -25 37 0 31 4 38 23 42 12 2 23 5 25 6 1 0 2 -18 2 -42z m-547
-103 c2 -14 0 -27 -5 -30 -6 -4 -5 -10 3 -15 14 -9 13 -10 -28 -13 -14 -1 -19
8 -21 40 -3 38 -1 42 22 42 18 0 25 -7 29 -24z m547 -13 c0 -44 -4 -51 -30
-44 -19 5 -34 70 -17 76 37 12 47 5 47 -32z m-549 -100 c0 -9 2 -26 3 -39 2
-18 -1 -21 -16 -16 -10 3 -18 0 -18 -6 0 -6 -4 -8 -10 -5 -10 6 -14 78 -4 87
10 11 44 -5 45 -21z m549 -23 c0 -35 -2 -39 -22 -36 -25 3 -33 26 -24 63 4 17
11 22 26 18 16 -4 20 -14 20 -45z m0 -108 c0 -25 -5 -40 -16 -44 -24 -9 -34 2
-34 38 0 38 2 41 30 43 17 2 20 -4 20 -37z"/>
</g>
</svg>
